<?xml version="1.0" encoding="UTF-8"?>
<svg version="1.1" xmlns="http://www.w3.org/2000/svg" width="1042" height="2256">
<path d="M0 0 C343.86 0 687.72 0 1042 0 C1042 744.48 1042 1488.96 1042 2256 C698.14 2256 354.28 2256 0 2256 C0 1511.52 0 767.04 0 0 Z " fill="#697377" transform="translate(0,0)"/>
<path d="M0 0 C343.86 0 687.72 0 1042 0 C1042 363 1042 726 1042 1100 C698.14 1100 354.28 1100 0 1100 C0 737 0 374 0 0 Z " fill="#44616F" transform="translate(0,1156)"/>
<path d="M0 0 C343.86 0 687.72 0 1042 0 C1042 75.57 1042 151.14 1042 229 C698.14 229 354.28 229 0 229 C0 153.43 0 77.86 0 0 Z " fill="#58666D" transform="translate(0,0)"/>
<path d="M0 0 C343.86 0 687.72 0 1042 0 C1042 20.13 1042 40.26 1042 61 C942.98076219 61.58596798 843.96045646 61.95893326 553.11394143 62.12501526 C549.12560225 62.125 545.13726306 62.12501526 541.14892387 62.12503052 C424.21484772 62.12494182 307.28094756 62.08186209 0 61 C0 40.87 0 20.74 0 0 Z " fill="#314D6A" transform="translate(0,1156)"/>
<path d="M0 0 C343.86 0 687.72 0 1042 0 C1042 18.15 1042 36.3 1042 55 C698.14 55 354.28 55 0 55 C0 36.85 0 18.7 0 0 Z " fill="#465B6A" transform="translate(0,174)"/>
<path d="M0 0 C343.86 0 687.72 0 1042 0 C1042 13.86 1042 27.72 1042 42 C698.14 42 354.28 42 0 42 C0 28.14 0 14.28 0 0 Z " fill="#646F70" transform="translate(0,0)"/>
<path d="M0 0 C343.86 0 687.72 0 1042 0 C1042 7.59 1042 15.18 1042 23 C698.14 23 354.28 23 0 23 C0 15.41 0 7.82 0 0 Z " fill="#4A5558" transform="translate(0,151)"/>
<path d="M0 0 C343.86 0 687.72 0 1042 0 C1042 7.59 1042 15.18 1042 23 C698.14 23 354.28 23 0 23 C0 15.41 0 7.82 0 0 Z " fill="#5F6D74" transform="translate(0,1217)"/>
<path d="M0 0 C343.86 0 687.72 0 1042 0 C1042 4.95 1042 9.9 1042 15 C698.14 15 354.28 15 0 15 C0 10.05 0 5.1 0 0 Z " fill="#757D80" transform="translate(0,229)"/>
<path d="M0 0 C343.86 0 687.72 0 1042 0 C1042 4.29 1042 8.58 1042 13 C948.80633023 13.55852717 855.61108978 13.928051 553.11394143 14.12501526 C549.12560225 14.125 545.13726306 14.12501526 541.14892387 14.12503052 C424.21484772 14.12494182 307.28094756 14.08186209 0 13 C0 8.71 0 4.42 0 0 Z " fill="#3B536B" transform="translate(0,1204)"/>
<path d="M0 0 C343.86 0 687.72 0 1042 0 C1042 3.63 1042 7.26 1042 11 C944.33092248 11.35793088 846.66156543 11.65665115 395.25186134 12.1227033 C378.48003979 12.12359133 361.70821879 12.12507127 344.93639755 12.12857056 C344.14986138 12.12873414 343.36332521 12.12889772 342.55295461 12.12906625 C339.3823059 12.12972828 336.2116572 12.13039623 333.04100849 12.13106861 C303.07909561 12.1374217 273.11718636 12.13993693 243.15527296 12.13556135 C240.21995131 12.13514113 237.28462966 12.13472834 234.34930801 12.13431931 C233.62828174 12.13421605 232.90725546 12.13411279 232.1643799 12.1340064 C222.28444335 12.13264749 212.404509 12.13329049 202.52457266 12.13566911 C135.00986754 12.15178646 67.50936594 11.88441425 0 11 C0 7.37 0 3.74 0 0 Z " fill="#374959" transform="translate(0,1156)"/>
<path d="M0 0 C343.86 0 687.72 0 1042 0 C1042 3.63 1042 7.26 1042 11 C698.14 11 354.28 11 0 11 C0 7.37 0 3.74 0 0 Z " fill="#636A6D" transform="translate(0,244)"/>
<path d="M0 0 C343.86 0 687.72 0 1042 0 C1042 3.63 1042 7.26 1042 11 C698.14 11 354.28 11 0 11 C0 7.37 0 3.74 0 0 Z " fill="#445158" transform="translate(0,118)"/>
<path d="M0 0 C343.86 0 687.72 0 1042 0 C1042 3.63 1042 7.26 1042 11 C698.14 11 354.28 11 0 11 C0 7.37 0 3.74 0 0 Z " fill="#546C82" transform="translate(0,1193)"/>
<path d="M0 0 C343.86 0 687.72 0 1042 0 C1042 2.97 1042 5.94 1042 9 C972.6919121 9.782441 903.38835207 10.10431695 834.07617188 10.12939453 C833.09335633 10.1297588 832.11054079 10.13012306 831.09794296 10.13049836 C804.98455671 10.13991854 778.87117312 10.1393171 752.75778589 10.13529945 C737.1886874 10.13295193 721.61958995 10.13271683 706.05049133 10.13381577 C704.92754962 10.13389215 703.80460791 10.13396854 702.64763767 10.13404724 C698.08477611 10.13435877 693.52191454 10.1346772 688.95905298 10.135007 C646.54426779 10.13803582 604.12948474 10.13534035 561.71469987 10.1299101 C524.32835346 10.12515998 486.94201045 10.12559928 449.55566406 10.13037109 C407.16153426 10.13576452 364.76740633 10.13782839 322.37327623 10.13475883 C317.82816092 10.13443829 313.28304561 10.13412544 308.7379303 10.13381577 C307.61950065 10.13373669 306.50107101 10.13365761 305.34874956 10.13357614 C289.80564155 10.13252864 274.26253477 10.13341899 258.71942693 10.13580156 C232.75240255 10.13972807 206.7853825 10.13910514 180.81835938 10.12939453 C179.84865705 10.12904061 178.87895472 10.1286867 177.87986748 10.12832205 C118.58198417 10.10583843 59.29205801 9.91812769 0 9 C0 6.03 0 3.06 0 0 Z " fill="#293C50" transform="translate(0,1184)"/>
<path d="M0 0 C343.86 0 687.72 0 1042 0 C1042 2.97 1042 5.94 1042 9 C698.14 9 354.28 9 0 9 C0 6.03 0 3.06 0 0 Z " fill="#6A7378" transform="translate(0,279)"/>
<path d="M0 0 C343.86 0 687.72 0 1042 0 C1042 2.97 1042 5.94 1042 9 C698.14 9 354.28 9 0 9 C0 6.03 0 3.06 0 0 Z " fill="#434C52" transform="translate(0,1217)"/>
<path d="M0 0 C343.86 0 687.72 0 1042 0 C1042 2.64 1042 5.28 1042 8 C698.14 8 354.28 8 0 8 C0 5.36 0 2.72 0 0 Z " fill="#5B6A74" transform="translate(0,1148)"/>
<path d="M0 0 C343.86 0 687.72 0 1042 0 C1042 2.31 1042 4.62 1042 7 C698.14 7 354.28 7 0 7 C0 4.69 0 2.38 0 0 Z " fill="#6A7378" transform="translate(0,272)"/>
<path d="M0 0 C343.86 0 687.72 0 1042 0 C1042 2.31 1042 4.62 1042 7 C698.14 7 354.28 7 0 7 C0 4.69 0 2.38 0 0 Z " fill="#606C6E" transform="translate(0,151)"/>
<path d="M0 0 C343.86 0 687.72 0 1042 0 C1042 2.31 1042 4.62 1042 7 C698.14 7 354.28 7 0 7 C0 4.69 0 2.38 0 0 Z " fill="#5E6A6F" transform="translate(0,0)"/>
<path d="M0 0 C343.86 0 687.72 0 1042 0 C1042 2.31 1042 4.62 1042 7 C698.14 7 354.28 7 0 7 C0 4.69 0 2.38 0 0 Z " fill="#5F6D74" transform="translate(0,1233)"/>
<path d="M0 0 C343.86 0 687.72 0 1042 0 C1042 2.31 1042 4.62 1042 7 C698.14 7 354.28 7 0 7 C0 4.69 0 2.38 0 0 Z " fill="#3C556E" transform="translate(0,1177)"/>
<path d="M0 0 C343.86 0 687.72 0 1042 0 C1042 1.65 1042 3.3 1042 5 C968.66179713 5.65872032 895.32591884 6.09937576 821.98461914 6.12939453 C820.68100227 6.12994093 820.68100227 6.12994093 819.35104971 6.13049836 C796.49691026 6.13982484 773.64277399 6.13934211 750.78863344 6.13529945 C737.13758123 6.13293402 723.48653019 6.13272399 709.83547783 6.13381577 C708.34874532 6.13393034 708.34874532 6.13393034 706.83197782 6.13404724 C702.80227989 6.13435889 698.77258197 6.13467732 694.74288405 6.135007 C657.37006795 6.13802741 619.99725428 6.13535631 582.62443856 6.1299101 C549.90676957 6.12517829 517.18910449 6.12558583 484.47143555 6.13037109 C447.1785199 6.13580812 409.8856064 6.13780362 372.59269041 6.13475883 C368.56509904 6.13443842 364.53750767 6.13412556 360.50991631 6.13381577 C359.51918903 6.13373669 358.52846175 6.13365761 357.50771243 6.13357614 C343.92775786 6.13254241 330.34780474 6.13338874 316.76785037 6.13580156 C293.92864615 6.13980489 271.089447 6.13886805 248.25024414 6.12939453 C247.37671138 6.12904061 246.50317862 6.1286867 245.60317517 6.12832205 C163.73352365 6.09390455 81.86723554 5.60048867 0 5 C0 3.35 0 1.7 0 0 Z " fill="#2A4158" transform="translate(0,1204)"/>
<path d="M0 0 C343.86 0 687.72 0 1042 0 C1042 1.65 1042 3.3 1042 5 C976.1510391 5.11406489 910.30207473 5.22598847 844.45309448 5.32835388 C843.45777311 5.32990168 842.46245175 5.33144947 841.43696913 5.33304417 C819.73792655 5.3667767 798.03888348 5.40017911 776.33983988 5.4332476 C765.67854551 5.44949698 755.01725124 5.46581832 744.35595703 5.48217773 C743.29576508 5.48380334 742.23557313 5.48542894 741.14325415 5.4871038 C709.6324511 5.53545063 678.12165643 5.58760547 646.6108647 5.64281297 C597.71445688 5.72841631 548.81804189 5.8073287 499.92160533 5.87471711 C497.89552536 5.87751017 495.8694454 5.88031088 493.84336545 5.88311923 C396.71450959 6.017714 299.58683853 6.05522882 0 5 C0 3.35 0 1.7 0 0 Z " fill="#495458" transform="translate(0,174)"/>
<path d="M0 0 C343.86 0 687.72 0 1042 0 C1042 1.65 1042 3.3 1042 5 C976.36994174 5.11408093 910.73987998 5.22601057 845.10980225 5.32835388 C844.11757647 5.32990168 843.12535069 5.33144947 842.10305746 5.33304417 C820.47081718 5.36677774 798.83857639 5.40018012 777.20633508 5.4332476 C766.57766079 5.44949679 755.94898662 5.46581817 745.3203125 5.48217773 C744.26337175 5.48380334 743.20643101 5.48542894 742.11746175 5.4871038 C710.71046477 5.53543968 679.30347622 5.58759385 647.89649063 5.64281297 C599.15468565 5.72844548 550.41287345 5.8073561 501.67103955 5.87471711 C499.65056099 5.87751015 497.63008245 5.88031086 495.60960391 5.88311923 C398.40695147 6.01819061 301.20549579 6.05380518 0 5 C0 3.35 0 1.7 0 0 Z " fill="#4C5658" transform="translate(0,158)"/>
<path d="M0 0 C343.86 0 687.72 0 1042 0 C1042 1.65 1042 3.3 1042 5 C698.14 5 354.28 5 0 5 C0 3.35 0 1.7 0 0 Z " fill="#838C90" transform="translate(0,255)"/>
<path d="M0 0 C343.86 0 687.72 0 1042 0 C1042 1.65 1042 3.3 1042 5 C698.14 5 354.28 5 0 5 C0 3.35 0 1.7 0 0 Z " fill="#4C5658" transform="translate(0,146)"/>
<path d="M0 0 C343.86 0 687.72 0 1042 0 C1042 1.65 1042 3.3 1042 5 C698.14 5 354.28 5 0 5 C0 3.35 0 1.7 0 0 Z " fill="#495459" transform="translate(0,42)"/>
<path d="M0 0 C343.86 0 687.72 0 1042 0 C1042 1.65 1042 3.3 1042 5 C698.14 5 354.28 5 0 5 C0 3.35 0 1.7 0 0 Z " fill="#50595A" transform="translate(0,14)"/>
<path d="M0 0 C343.86 0 687.72 0 1042 0 C1042 1.32 1042 2.64 1042 4 C698.14 4 354.28 4 0 4 C0 2.68 0 1.36 0 0 Z " fill="#56666E" transform="translate(0,114)"/>
<path d="M0 0 C343.86 0 687.72 0 1042 0 C1042 0.99 1042 1.98 1042 3 C974.52217821 3.74208609 907.04885049 4.1030834 839.56713867 4.12939453 C838.19901175 4.12994093 838.19901175 4.12994093 836.8032459 4.13049836 C812.61827736 4.13990007 788.43331173 4.13932048 764.24834214 4.13529945 C749.79810721 4.13294542 735.34787339 4.13271947 720.89763832 4.13381577 C719.85280166 4.13389215 718.807965 4.13396854 717.73146662 4.13404724 C713.48471252 4.13435883 709.23795842 4.13467726 704.99120432 4.135007 C665.51313322 4.13803518 626.03506443 4.13534347 586.55699369 4.1299101 C551.90916968 4.12517758 517.26134936 4.12558473 482.61352539 4.13037109 C443.22605261 4.13579469 403.83858186 4.1378107 364.45110875 4.13475883 C360.20586828 4.13443837 355.96062781 4.13412551 351.71538734 4.13381577 C350.14871175 4.13369715 350.14871175 4.13369715 348.55038615 4.13357614 C334.16635444 4.13253774 319.78232408 4.13339927 305.39829255 4.13580156 C281.24103091 4.13978152 257.08377401 4.13893941 232.92651367 4.12939453 C232.0092447 4.12904061 231.09197573 4.1286867 230.14691073 4.12832205 C153.42870609 4.09759656 76.71527489 3.65200984 0 3 C0 2.01 0 1.02 0 0 Z " fill="#283C4F" transform="translate(0,1184)"/>
<path d="M0 0 C2.04715542 0.00000572 4.09431083 -0 6.14146625 -0.00000954 C203.72346928 -0.00085618 203.72346928 -0.00085618 503.35951255 1.12500572 C503.35951255 2.11500572 503.35951255 3.10500572 503.35951255 4.12500572 C412.78244038 4.49274132 322.20506703 4.81475832 -17.2537687 5.00391197 C-19.20422919 5.00111921 -21.15468968 4.99832683 -23.10515018 4.99553484 C-69.91558853 4.92833608 -116.72600229 4.84851693 -163.53640938 4.76243202 C-193.6960151 4.70696889 -223.85562517 4.65542462 -254.01524331 4.60718346 C-255.03073073 4.60555787 -256.04621816 4.60393229 -257.09247793 4.60225745 C-267.30377501 4.58591487 -277.51507218 4.5696378 -287.72636944 4.55340839 C-308.47062581 4.52043686 -329.21488149 4.48703218 -349.95913674 4.4533596 C-351.38529788 4.45104544 -351.38529788 4.45104544 -352.84027035 4.44868452 C-414.77368872 4.34813887 -476.70708985 4.23755177 -538.64048745 4.12500572 C-538.64048745 3.13500572 -538.64048745 2.14500572 -538.64048745 1.12500572 C-450.71923117 0.6878191 -362.79727593 0.3541636 0 0 Z " fill="#434C52" transform="translate(538.640487447381,1224.874994277954)"/>
<path d="M0 0 C343.86 0 687.72 0 1042 0 C1042 0.99 1042 1.98 1042 3 C987.26042372 3.09647147 932.52084658 3.19243857 877.78126526 3.28601074 C876.54433724 3.28812535 876.54433724 3.28812535 875.28242077 3.29028267 C857.31381067 3.32099841 839.34520043 3.351632 821.37659004 3.38218227 C812.55078331 3.39718842 803.72497661 3.41221252 794.89916992 3.42724609 C793.58252771 3.42948836 793.58252771 3.42948836 792.23928667 3.43177592 C766.91141544 3.47491722 741.58354583 3.51890309 716.25567747 3.56369251 C634.07300781 3.70901788 551.89032887 3.85314322 107.08452886 3.55461836 C95.27870593 3.48947131 83.47284967 3.43136221 71.6669904 3.37324238 C47.77795682 3.2555101 23.88896507 3.13086599 0 3 C0 2.01 0 1.02 0 0 Z " fill="#3B464B" transform="translate(0,98)"/>
<path d="M0 0 C343.86 0 687.72 0 1042 0 C1042 0.99 1042 1.98 1042 3 C981.28288576 3.72894517 920.57117058 4.10262982 859.85009766 4.12939453 C859.04326225 4.1297588 858.23642685 4.13012306 857.40514189 4.13049836 C835.99806152 4.13990559 814.59098445 4.13931477 793.1839029 4.13529945 C780.32973836 4.13293783 767.47557507 4.13272253 754.62141037 4.13381577 C753.68921136 4.13389215 752.75701236 4.13396854 751.7965649 4.13404724 C748.00579748 4.13435892 744.21503006 4.13467735 740.42426265 4.135007 C705.13103485 4.13803855 669.83780963 4.13534251 634.54458223 4.1299101 C604.79826235 4.12536579 575.05194635 4.12530892 545.30562648 4.12991632 C357.50548558 4.15896703 357.50548558 4.15896703 0 3 C0 2.01 0 1.02 0 0 Z " fill="#26384A" transform="translate(0,1174)"/>
<path d="M0 0 C343.86 0 687.72 0 1042 0 C1042 0.99 1042 1.98 1042 3 C980.17036426 3.75525696 918.34620477 4.10351998 856.51245117 4.12939453 C855.66262246 4.1297588 854.81279375 4.13012306 853.93721265 4.13049836 C831.35795682 4.13991829 808.77870409 4.1393127 786.19944714 4.13529945 C772.66518907 4.1329428 759.13093218 4.13272054 745.59667397 4.13381577 C744.12716203 4.13393034 744.12716203 4.13393034 742.62796299 4.13404724 C738.64505182 4.13435888 734.66214065 4.1346773 730.67922948 4.135007 C693.60094018 4.13803883 656.52265334 4.13534039 619.44436442 4.1299101 C588.0890499 4.1253525 556.73373906 4.12532063 525.37842455 4.12991632 C328.83964737 4.15868656 328.83964737 4.15868656 0 3 C0 2.01 0 1.02 0 0 Z " fill="#3C474E" transform="translate(0,1156)"/>
<path d="M0 0 C343.86 0 687.72 0 1042 0 C1042 0.99 1042 1.98 1042 3 C698.14 3 354.28 3 0 3 C0 2.01 0 1.02 0 0 Z " fill="#537391" transform="translate(0,1201)"/>
<path d="M0 0 C343.86 0 687.72 0 1042 0 C1042 0.99 1042 1.98 1042 3 C698.14 3 354.28 3 0 3 C0 2.01 0 1.02 0 0 Z " fill="#2C3B49" transform="translate(0,1198)"/>
<path d="M0 0 C343.86 0 687.72 0 1042 0 C1042 0.99 1042 1.98 1042 3 C698.14 3 354.28 3 0 3 C0 2.01 0 1.02 0 0 Z " fill="#80919C" transform="translate(0,1145)"/>
<path d="M0 0 C343.86 0 687.72 0 1042 0 C1042 0.99 1042 1.98 1042 3 C698.14 3 354.28 3 0 3 C0 2.01 0 1.02 0 0 Z " fill="#41494E" transform="translate(0,1142)"/>
<path d="M0 0 C343.86 0 687.72 0 1042 0 C1042 0.99 1042 1.98 1042 3 C698.14 3 354.28 3 0 3 C0 2.01 0 1.02 0 0 Z " fill="#464C50" transform="translate(0,288)"/>
<path d="M0 0 C343.86 0 687.72 0 1042 0 C1042 0.99 1042 1.98 1042 3 C698.14 3 354.28 3 0 3 C0 2.01 0 1.02 0 0 Z " fill="#8D99A0" transform="translate(0,279)"/>
<path d="M0 0 C343.86 0 687.72 0 1042 0 C1042 0.99 1042 1.98 1042 3 C698.14 3 354.28 3 0 3 C0 2.01 0 1.02 0 0 Z " fill="#474C50" transform="translate(0,272)"/>
<path d="M0 0 C343.86 0 687.72 0 1042 0 C1042 0.99 1042 1.98 1042 3 C698.14 3 354.28 3 0 3 C0 2.01 0 1.02 0 0 Z " fill="#809093" transform="translate(0,155)"/>
<path d="M0 0 C343.86 0 687.72 0 1042 0 C1042 0.99 1042 1.98 1042 3 C698.14 3 354.28 3 0 3 C0 2.01 0 1.02 0 0 Z " fill="#798B93" transform="translate(0,143)"/>
<path d="M0 0 C343.86 0 687.72 0 1042 0 C1042 0.99 1042 1.98 1042 3 C698.14 3 354.28 3 0 3 C0 2.01 0 1.02 0 0 Z " fill="#394449" transform="translate(0,126)"/>
<path d="M0 0 C343.86 0 687.72 0 1042 0 C1042 0.99 1042 1.98 1042 3 C698.14 3 354.28 3 0 3 C0 2.01 0 1.02 0 0 Z " fill="#738893" transform="translate(0,123)"/>
<path d="M0 0 C343.86 0 687.72 0 1042 0 C1042 0.99 1042 1.98 1042 3 C698.14 3 354.28 3 0 3 C0 2.01 0 1.02 0 0 Z " fill="#748993" transform="translate(0,111)"/>
<path d="M0 0 C343.86 0 687.72 0 1042 0 C1042 0.99 1042 1.98 1042 3 C698.14 3 354.28 3 0 3 C0 2.01 0 1.02 0 0 Z " fill="#3A4449" transform="translate(0,108)"/>
<path d="M0 0 C343.86 0 687.72 0 1042 0 C1042 0.99 1042 1.98 1042 3 C698.14 3 354.28 3 0 3 C0 2.01 0 1.02 0 0 Z " fill="#798C93" transform="translate(0,95)"/>
<path d="M0 0 C343.86 0 687.72 0 1042 0 C1042 0.99 1042 1.98 1042 3 C698.14 3 354.28 3 0 3 C0 2.01 0 1.02 0 0 Z " fill="#3C4649" transform="translate(0,92)"/>
<path d="M0 0 C343.86 0 687.72 0 1042 0 C1042 0.99 1042 1.98 1042 3 C698.14 3 354.28 3 0 3 C0 2.01 0 1.02 0 0 Z " fill="#7A8C93" transform="translate(0,89)"/>
<path d="M0 0 C343.86 0 687.72 0 1042 0 C1042 0.99 1042 1.98 1042 3 C698.14 3 354.28 3 0 3 C0 2.01 0 1.02 0 0 Z " fill="#3D4649" transform="translate(0,86)"/>
<path d="M0 0 C343.86 0 687.72 0 1042 0 C1042 0.99 1042 1.98 1042 3 C698.14 3 354.28 3 0 3 C0 2.01 0 1.02 0 0 Z " fill="#3D4649" transform="translate(0,78)"/>
<path d="M0 0 C343.86 0 687.72 0 1042 0 C1042 0.99 1042 1.98 1042 3 C698.14 3 354.28 3 0 3 C0 2.01 0 1.02 0 0 Z " fill="#7A8C93" transform="translate(0,75)"/>
<path d="M0 0 C343.86 0 687.72 0 1042 0 C1042 0.99 1042 1.98 1042 3 C698.14 3 354.28 3 0 3 C0 2.01 0 1.02 0 0 Z " fill="#3D4649" transform="translate(0,72)"/>
<path d="M0 0 C343.86 0 687.72 0 1042 0 C1042 0.99 1042 1.98 1042 3 C698.14 3 354.28 3 0 3 C0 2.01 0 1.02 0 0 Z " fill="#7A8C93" transform="translate(0,69)"/>
<path d="M0 0 C343.86 0 687.72 0 1042 0 C1042 0.99 1042 1.98 1042 3 C698.14 3 354.28 3 0 3 C0 2.01 0 1.02 0 0 Z " fill="#3C4549" transform="translate(0,66)"/>
<path d="M0 0 C343.86 0 687.72 0 1042 0 C1042 0.99 1042 1.98 1042 3 C698.14 3 354.28 3 0 3 C0 2.01 0 1.02 0 0 Z " fill="#778B93" transform="translate(0,63)"/>
<path d="M0 0 C343.86 0 687.72 0 1042 0 C1042 0.99 1042 1.98 1042 3 C698.14 3 354.28 3 0 3 C0 2.01 0 1.02 0 0 Z " fill="#3B4549" transform="translate(0,60)"/>
<path d="M0 0 C343.86 0 687.72 0 1042 0 C1042 0.99 1042 1.98 1042 3 C698.14 3 354.28 3 0 3 C0 2.01 0 1.02 0 0 Z " fill="#778A93" transform="translate(0,57)"/>
<path d="M0 0 C343.86 0 687.72 0 1042 0 C1042 0.99 1042 1.98 1042 3 C698.14 3 354.28 3 0 3 C0 2.01 0 1.02 0 0 Z " fill="#778B94" transform="translate(0,47)"/>
<path d="M0 0 C343.86 0 687.72 0 1042 0 C1042 0.99 1042 1.98 1042 3 C698.14 3 354.28 3 0 3 C0 2.01 0 1.02 0 0 Z " fill="#7F8F95" transform="translate(0,39)"/>
<path d="M0 0 C343.86 0 687.72 0 1042 0 C1042 0.99 1042 1.98 1042 3 C698.14 3 354.28 3 0 3 C0 2.01 0 1.02 0 0 Z " fill="#41494B" transform="translate(0,36)"/>
<path d="M0 0 C343.86 0 687.72 0 1042 0 C1042 0.99 1042 1.98 1042 3 C698.14 3 354.28 3 0 3 C0 2.01 0 1.02 0 0 Z " fill="#8B9797" transform="translate(0,29)"/>
<path d="M0 0 C343.86 0 687.72 0 1042 0 C1042 0.99 1042 1.98 1042 3 C698.14 3 354.28 3 0 3 C0 2.01 0 1.02 0 0 Z " fill="#454B4B" transform="translate(0,26)"/>
<path d="M0 0 C343.86 0 687.72 0 1042 0 C1042 0.99 1042 1.98 1042 3 C698.14 3 354.28 3 0 3 C0 2.01 0 1.02 0 0 Z " fill="#8A9696" transform="translate(0,23)"/>
<path d="M0 0 C343.86 0 687.72 0 1042 0 C1042 0.99 1042 1.98 1042 3 C698.14 3 354.28 3 0 3 C0 2.01 0 1.02 0 0 Z " fill="#849295" transform="translate(0,11)"/>
<path d="M0 0 C343.86 0 687.72 0 1042 0 C1042 0.99 1042 1.98 1042 3 C698.14 3 354.28 3 0 3 C0 2.01 0 1.02 0 0 Z " fill="#3D4649" transform="translate(0,0)"/>
<path d="M0 0 C343.86 0 687.72 0 1042 0 C1042 0.99 1042 1.98 1042 3 C698.14 3 354.28 3 0 3 C0 2.01 0 1.02 0 0 Z " fill="#7F919B" transform="translate(0,1237)"/>
<path d="M0 0 C343.86 0 687.72 0 1042 0 C1042 0.99 1042 1.98 1042 3 C698.14 3 354.28 3 0 3 C0 2.01 0 1.02 0 0 Z " fill="#7E8F93" transform="translate(0,163)"/>
<path d="M0 0 C343.86 0 687.72 0 1042 0 C1042 0.99 1042 1.98 1042 3 C698.14 3 354.28 3 0 3 C0 2.01 0 1.02 0 0 Z " fill="#788B92" transform="translate(0,179)"/>
<path d="M0 0 C343.86 0 687.72 0 1042 0 C1042 0.99 1042 1.98 1042 3 C698.14 3 354.28 3 0 3 C0 2.01 0 1.02 0 0 Z " fill="#7C8F9A" transform="translate(0,1159)"/>
<path d="M0 0 C343.86 0 687.72 0 1042 0 C1042 0.99 1042 1.98 1042 3 C698.14 3 354.28 3 0 3 C0 2.01 0 1.02 0 0 Z " fill="#7C8D92" transform="translate(0,171)"/>
<path d="M0 0 C343.86 0 687.72 0 1042 0 C1042 0.99 1042 1.98 1042 3 C698.14 3 354.28 3 0 3 C0 2.01 0 1.02 0 0 Z " fill="#486B8E" transform="translate(0,1167)"/>
<path d="M0 0 C343.86 0 687.72 0 1042 0 C1042 0.99 1042 1.98 1042 3 C698.14 3 354.28 3 0 3 C0 2.01 0 1.02 0 0 Z " fill="#909AA0" transform="translate(0,269)"/>
<path d="M0 0 C343.86 0 687.72 0 1042 0 C1042 0.99 1042 1.98 1042 3 C698.14 3 354.28 3 0 3 C0 2.01 0 1.02 0 0 Z " fill="#7A8C92" transform="translate(0,101)"/>
<path d="M0 0 C343.86 0 687.72 0 1042 0 C1042 0.99 1042 1.98 1042 3 C698.14 3 354.28 3 0 3 C0 2.01 0 1.02 0 0 Z " fill="#7F9099" transform="translate(0,1217)"/>
<path d="M0 0 C343.86 0 687.72 0 1042 0 C1042 0.99 1042 1.98 1042 3 C698.14 3 354.28 3 0 3 C0 2.01 0 1.02 0 0 Z " fill="#7E9099" transform="translate(0,1223)"/>
<path d="M0 0 C343.86 0 687.72 0 1042 0 C1042 0.99 1042 1.98 1042 3 C698.14 3 354.28 3 0 3 C0 2.01 0 1.02 0 0 Z " fill="#5B7790" transform="translate(0,1181)"/>
<path d="M0 0 C343.86 0 687.72 0 1042 0 C1042 0.99 1042 1.98 1042 3 C698.14 3 354.28 3 0 3 C0 2.01 0 1.02 0 0 Z " fill="#5A768F" transform="translate(0,1187)"/>
<path d="M0 0 C343.86 0 687.72 0 1042 0 C1042 0.66 1042 1.32 1042 2 C954.02612062 2.51158524 866.05123296 2.96226782 553.12191421 3.12946078 C529.38340089 3.12509864 505.64489197 3.12550946 481.90637869 3.12991632 C325.18493672 3.15896858 325.18493672 3.15896858 0 2 C0 1.34 0 0.68 0 0 Z " fill="#5A6D77" transform="translate(0,129)"/>
<path d="M0 0 C2.00630806 0.00279275 4.01261612 0.00558513 6.01892418 0.00837713 C54.38338013 0.075869 102.747813 0.15569247 151.11223964 0.24147995 C182.30683617 0.29681134 213.50143679 0.3483786 244.69604492 0.39672852 C245.74404399 0.3983541 246.79204306 0.39997968 247.87179967 0.40165452 C258.40875715 0.41799526 268.94571472 0.43427252 279.48267236 0.45050358 C300.89392061 0.48348676 322.30516821 0.51688994 343.71641541 0.55055237 C345.18885991 0.55286654 345.18885991 0.55286654 346.69105076 0.55522746 C410.78232695 0.65600416 474.87358698 0.76652338 538.96484375 0.87890625 C538.96484375 1.53890625 538.96484375 2.19890625 538.96484375 2.87890625 C195.10484375 2.87890625 -148.75515625 2.87890625 -503.03515625 2.87890625 C-503.03515625 2.21890625 -503.03515625 1.55890625 -503.03515625 0.87890625 C-414.50013831 0.48815598 -325.96470377 0.15210926 0 0 Z " fill="#5B696F" transform="translate(503.03515625,83.12109375)"/>
</svg>
